<svg width="754" height="819" viewBox="0 0 754 819" fill="none" xmlns="http://www.w3.org/2000/svg">
<g opacity="0.1">
<path d="M214.086 689.164C214.295 687.196 214.546 685.187 214.839 683.135C215.466 679.032 216.303 674.677 217.432 670.197C218.562 665.676 219.984 660.986 221.741 656.088C224.879 648.802 229.104 640.177 234.668 631.05C236.55 627.993 238.558 624.895 240.733 621.797C242.909 618.657 245.251 615.517 247.803 612.376C249.686 610.032 251.694 607.645 253.785 605.342C260.102 598.308 267.381 591.442 275.748 585.078C278.341 583.11 281.019 581.184 283.654 579.384C286.331 577.583 289.009 575.867 291.77 574.276C295.409 572.14 299.091 570.13 302.772 568.246C317.581 560.836 332.808 555.728 347.575 552.252C354.98 550.494 362.217 549.196 369.245 548.149C372.759 547.647 376.231 547.186 379.619 546.851C383.008 546.516 386.313 546.181 389.534 545.93C394.386 545.553 399.03 545.344 403.422 545.177C415.177 544.8 425.217 545.009 432.58 545.177C450.443 545.553 478.387 547.772 520.806 544.214C523.4 544.004 526.119 543.753 528.964 543.502C537.497 542.706 547.245 541.66 558.581 539.775C561.008 539.357 563.769 538.896 566.739 538.352C569.709 537.808 572.972 537.18 576.444 536.468C579.916 535.756 583.639 534.919 587.53 533.998C594.851 532.239 602.883 530.062 611.417 527.298C614.261 526.377 617.148 525.373 620.118 524.326C627.188 521.772 634.55 518.841 642.08 515.45C647.1 513.189 652.204 510.676 657.391 507.955C667.682 502.512 677.22 496.65 685.963 490.579C690.356 487.523 694.539 484.425 698.555 481.284C702.236 478.395 705.792 475.465 709.181 472.534C711.314 470.692 713.364 468.891 715.372 467.049C717.087 465.458 718.802 463.867 720.434 462.318C722.902 459.973 725.244 457.628 727.503 455.284C729.804 452.939 732.021 450.594 734.113 448.333C736.916 445.277 739.51 442.304 741.978 439.415C743.191 437.95 744.404 436.526 745.534 435.145C745.408 436.359 745.241 437.699 745.073 439.122C745.032 439.541 744.948 440.002 744.906 440.462C744.781 441.509 744.613 442.597 744.446 443.728C744.362 444.314 744.279 444.9 744.153 445.486C743.986 446.617 743.777 447.789 743.567 448.962C743.442 449.59 743.358 450.176 743.233 450.846C742.94 452.311 742.647 453.86 742.312 455.451C742.229 455.828 742.145 456.205 742.061 456.624C741.643 458.591 741.183 460.643 740.639 462.695C740.514 463.281 740.346 463.909 740.179 464.495C739.802 466.044 739.384 467.593 738.924 469.184C738.715 469.98 738.464 470.775 738.213 471.571C738.004 472.324 737.753 473.12 737.502 473.874C730.264 497.446 716.836 525.833 691.443 549.991C656.68 583.026 616.269 592.028 585.271 598.392C559.042 603.793 538.125 604.128 515.661 604.547C463.286 605.468 446.469 597.68 410.659 603.709C384.137 608.189 359.665 624.728 345.567 632.39C380.163 623.179 403.213 623.179 419.654 622.425C449.313 621.085 468.264 623.807 506.625 626.151C525.491 627.324 548.792 628.58 577.95 623.765C607.568 618.824 631.162 609.571 647.393 601.825C593.386 653.91 548.039 666.304 515.912 667.518C478.011 668.941 447.975 655.292 393.759 661.405C393.759 661.405 343.81 667.015 318.459 694.398L318.376 694.482C316.66 696.324 294.322 720.985 299.425 750.879C305.073 783.997 343.392 811.673 396.227 817.409C318.334 826.201 251.652 795.93 225.422 748.534C224.209 746.357 223.122 744.138 222.118 741.877C221.867 741.333 221.616 740.747 221.365 740.202C220.361 737.942 219.44 735.639 218.645 733.294C217.474 729.945 215.968 724.962 214.88 718.514C214.42 715.918 214.044 713.113 213.793 710.057C213.542 707 213.375 703.735 213.375 700.218C213.375 696.742 213.584 693.016 213.96 689.08L214.086 689.164Z" fill="url(#paint0_linear_40_1433)"/>
<path d="M214.839 683.135C215.466 679.032 216.303 674.677 217.432 670.197C218.562 665.676 219.984 660.986 221.741 656.088C224.879 648.802 229.104 640.177 234.668 631.05C236.55 627.993 238.558 624.895 240.733 621.797C242.909 618.657 245.251 615.517 247.803 612.376C249.686 610.032 251.694 607.645 253.785 605.342C260.102 598.308 267.381 591.442 275.748 585.078C278.341 583.11 281.019 581.184 283.654 579.384C286.331 577.583 289.009 575.867 291.77 574.276C295.409 572.14 299.091 570.13 302.772 568.246C317.581 560.836 332.808 555.728 347.575 552.252C354.98 550.494 362.217 549.196 369.245 548.149C372.759 547.647 376.231 547.186 379.619 546.851C383.008 546.516 386.313 546.181 389.534 545.93C394.386 545.553 399.03 545.344 403.422 545.177C415.177 544.8 425.217 545.009 432.58 545.177C450.443 545.553 478.387 547.772 520.806 544.214C523.4 544.004 526.119 543.753 528.964 543.502C537.497 542.706 547.245 541.66 558.581 539.775C561.008 539.357 563.769 538.896 566.739 538.352C569.709 537.808 572.972 537.18 576.444 536.468C579.916 535.756 583.639 534.919 587.53 533.998C594.851 532.239 602.883 530.062 611.417 527.298C614.261 526.377 617.148 525.373 620.118 524.326C627.188 521.772 634.55 518.841 642.08 515.45C647.1 513.189 652.204 510.676 657.391 507.955C667.682 502.512 677.22 496.65 685.963 490.579C690.356 487.523 694.539 484.425 698.555 481.284C702.236 478.395 705.792 475.465 709.181 472.534C711.314 470.692 713.364 468.891 715.372 467.049C717.087 465.458 718.802 463.867 720.434 462.318C722.902 459.973 725.244 457.628 727.503 455.284C729.804 452.939 732.021 450.594 734.113 448.333C736.916 445.277 739.51 442.304 741.978 439.415C743.191 437.95 744.404 436.526 745.534 435.145C745.408 436.359 745.241 437.699 745.073 439.122C745.032 439.541 744.948 440.002 744.906 440.462C744.781 441.509 744.613 442.597 744.446 443.728C744.362 444.314 744.279 444.9 744.153 445.486C743.986 446.617 743.777 447.789 743.567 448.962C743.442 449.59 743.358 450.176 743.233 450.846C742.94 452.311 742.647 453.86 742.312 455.451C742.229 455.828 742.145 456.205 742.061 456.624C741.643 458.591 741.183 460.643 740.639 462.695C740.514 463.281 740.346 463.909 740.179 464.495C739.802 466.044 739.384 467.593 738.924 469.184C738.715 469.98 738.464 470.775 738.213 471.571C738.004 472.324 737.753 473.12 737.502 473.874C719.848 492.254 696.254 512.1 665.716 528.22C624.385 550.033 586.442 556.732 566.906 560.04C551.804 562.594 539.505 563.599 529.173 564.478C486.754 568.037 458.768 565.818 440.947 565.441C411.371 564.813 339.669 562.887 284.031 605.3C254.287 627.993 238.433 656.883 230.024 676.352C217.809 710.308 221.783 735.513 225.464 748.534C224.251 746.357 223.163 744.138 222.159 741.877C221.908 741.333 221.657 740.747 221.406 740.202C220.402 737.942 219.482 735.639 218.687 733.294C217.516 729.945 216.01 724.962 214.922 718.514C214.462 715.918 214.086 713.113 213.835 710.057C213.584 707 213.416 703.735 213.416 700.218C213.416 696.742 213.626 693.016 214.002 689.08C214.211 687.113 214.462 685.103 214.755 683.051L214.839 683.135Z" fill="url(#paint1_linear_40_1433)"/>
<path d="M570.42 158.391C565.693 175.934 551.637 220.901 515.786 263.356C499.513 282.658 481.901 297.647 459.311 316.907C452.827 322.433 432.203 339.809 401.414 361.707C374.934 380.548 365.731 385.656 310.72 419.528C255.207 453.693 262.947 450.929 231.237 469.352C231.237 469.352 177.398 500.586 129.876 510.467C124.479 511.598 110.423 512.979 105.319 512.937C105.11 512.812 104.985 512.77 104.985 512.77C109.921 512.812 124.27 511.43 129.75 510.3C177.272 500.46 231.112 469.184 231.112 469.184C262.821 450.804 255.082 453.525 310.595 419.36C365.605 385.53 374.808 380.38 401.289 361.539C432.078 339.642 452.702 322.266 459.186 316.739C481.776 297.521 499.346 282.49 515.66 263.189C551.511 220.734 565.567 175.766 570.295 158.223C589.287 87.8412 574.352 27.6754 565.442 0C571.466 4.1869 578.828 10.0067 586.442 17.585C578.87 10.0486 571.549 4.35438 565.567 0.167476C574.478 27.8429 589.412 88.0087 570.42 158.391Z" fill="url(#paint2_linear_40_1433)"/>
<path d="M5.71484 558.24C11.8224 546.684 21.2349 540.404 24.8326 538.059C35.1235 531.318 45.0798 529.308 50.5181 528.638C50.9783 527.717 51.6895 526.461 52.6935 525.038C56.1656 520.223 60.1816 517.669 61.9385 516.622C64.7414 514.905 69.845 512.519 81.3073 511.765C87.2476 511.388 90.0085 512.686 104.566 512.896H105.068C105.068 512.896 105.194 512.896 105.278 512.896C110.381 512.896 124.437 511.514 129.834 510.425C177.356 500.586 231.195 469.31 231.195 469.31C262.905 450.929 255.166 453.651 310.678 419.486C365.689 385.656 374.892 380.506 401.372 361.665C432.162 339.767 452.785 322.392 459.269 316.865C481.859 297.647 499.429 282.616 515.744 263.314C551.595 220.859 565.651 175.892 570.378 158.349C589.37 87.9668 574.436 27.801 565.526 0.12561C571.508 4.27064 578.828 10.0067 586.4 17.5431C586.777 17.9199 587.153 18.2968 587.53 18.6736C588.91 20.0553 590.249 21.5207 591.629 23.028C592.299 23.7816 593.01 24.5353 593.679 25.3308C594.725 26.545 595.771 27.801 596.817 29.099C597.695 30.1876 598.616 31.2762 599.494 32.4485C600.289 33.4952 601.084 34.5838 601.879 35.6724C602.924 37.1378 604.012 38.6032 605.058 40.1524C605.183 40.3199 605.309 40.5292 605.434 40.7386C606.857 42.8739 608.279 45.0092 609.659 47.312C609.659 47.312 620.118 65.7762 626.1 87.9668C652.999 187.699 593.261 308.156 475.794 389.633C507.587 375.23 563.392 344.875 612.964 285.714C673.329 213.783 691.443 138.545 697.634 103.123C707.34 122.886 733.234 182.256 713.573 249.791C699.726 297.312 669.774 326.62 649.945 346.089C614.93 380.422 580.209 396.667 539.254 415.424C463.411 450.176 407.271 460.559 410.116 460.308C488.594 453.651 548.625 433.805 587.237 417.811C622.419 403.241 657.517 388.335 693.326 354.589C724.533 325.197 742.898 294.172 753.314 272.902C754.904 292.664 755.824 338.218 730.264 386.242C705.248 433.219 668.728 456.582 649.903 468.347C608.028 494.431 569.207 501.047 532.728 506.866C528.503 507.536 519.593 508.667 508.8 509.797C492.778 511.472 473.535 512.854 436.261 513.482C406.769 513.984 413.337 513.231 391.416 513.775C391.416 513.775 334.523 515.617 304.069 525.414C299.843 526.796 295.953 528.303 291.937 529.978C289.678 530.941 286.122 532.448 281.604 534.667C243.578 553.215 218.855 584.24 218.855 584.24C184.3 627.407 182.502 680.162 182.376 693.058C178.402 681.921 175.39 673.212 173.424 667.35C171.207 660.903 169.408 655.376 166.103 647.756C164.262 643.485 162.422 639.591 161.208 637.247C157.736 630.548 151.21 619.955 138.786 607.938C140.585 610.492 142.676 613.967 144.35 618.364C146.567 624.058 147.32 629.166 147.571 632.85C145.479 629.124 142.3 623.932 137.656 618.364C123.015 600.737 105.738 593.452 98.5425 590.102C92.5604 587.339 77.9606 580.765 58.2154 581.393C37.9682 582.021 23.4939 589.851 19.1851 592.321C12.45 596.215 7.42999 600.402 3.95782 603.668C2.45184 599.69 -5.07812 578.421 5.71484 558.114V558.24ZM62.9426 533.746C63.6119 534.081 70.2634 537.305 75.2415 534.374C76.9149 533.37 77.9188 531.946 78.0443 531.82C79.9686 529.183 79.8431 526.252 79.7595 525.289C80.3452 524.996 80.9726 524.703 81.6838 524.451C84.2774 523.405 86.7456 523.028 88.7118 522.902C88.5026 522.86 88.2097 522.819 88.0005 522.777C88.2097 522.777 88.4189 522.735 88.5862 522.735C87.4985 522.442 85.9926 522.19 84.1938 522.232C82.6041 522.232 80.889 522.484 79.2156 523.153H79.1738C78.9646 523.279 78.5881 523.405 78.1698 523.614C75.4925 524.87 73.6937 526.168 72.7733 526.796C70.6398 528.303 67.2095 530.606 62.8171 533.621L63.0681 533.746L62.9426 533.83V533.746Z" fill="url(#paint3_linear_40_1433)"/>
<path d="M602.297 167.644C597.57 185.187 583.514 230.154 547.663 272.609C531.39 291.911 513.778 306.9 491.188 326.16C484.704 331.686 464.08 349.062 433.291 370.96C406.811 389.801 397.608 394.909 342.597 428.781C287.084 462.946 294.824 460.182 263.114 478.605C263.114 478.605 209.275 509.839 161.752 519.72C156.272 520.851 141.965 522.274 136.987 522.19H136.485C123.099 521.981 107.871 514.57 105.571 513.356C110.674 513.356 124.73 511.974 130.127 510.886C177.649 501.047 231.488 469.77 231.488 469.77C263.198 451.39 255.459 454.111 310.971 419.946C365.982 386.116 375.185 380.966 401.665 362.125C432.454 340.228 453.078 322.852 459.562 317.325C482.152 298.107 499.722 283.076 516.037 263.775C551.888 221.32 565.944 176.352 570.671 158.809C589.663 88.4274 574.729 28.2616 565.818 0.586182C571.801 4.73122 579.121 10.4673 586.693 18.0037C587.07 18.3805 587.446 18.7573 587.823 19.1342C589.203 20.5158 590.542 21.9813 591.922 23.4885C592.592 24.2422 593.303 24.9958 593.972 25.7913C595.018 27.0055 596.064 28.2616 597.11 29.5595C597.988 30.6481 598.908 31.7367 599.787 32.9091C600.582 33.9558 601.377 35.0444 602.171 36.133C603.217 37.5984 604.305 39.0638 605.351 40.613C605.476 40.7804 605.602 40.9898 605.727 41.1991C612.17 72.894 615.767 117.736 602.297 167.727V167.644Z" fill="url(#paint4_linear_40_1433)"/>
</g>
<defs>
<linearGradient id="paint0_linear_40_1433" x1="-21.6439" y1="903.031" x2="602.18" y2="550.241" gradientUnits="userSpaceOnUse">
<stop stop-color="#E86EA5"/>
<stop offset="0.07" stop-color="#E8669A"/>
<stop offset="0.2" stop-color="#EA537E"/>
<stop offset="0.37" stop-color="#EC3451"/>
<stop offset="0.47" stop-color="#EE1F32"/>
<stop offset="0.62" stop-color="#DB1E2D"/>
<stop offset="0.9" stop-color="#AC1C22"/>
<stop offset="1" stop-color="#9B1C1F"/>
</linearGradient>
<linearGradient id="paint1_linear_40_1433" x1="766.91" y1="525.707" x2="200.732" y2="658.635" gradientUnits="userSpaceOnUse">
<stop stop-color="#E12F2A"/>
<stop offset="0.05" stop-color="#E12F2A" stop-opacity="0.93"/>
<stop offset="0.23" stop-color="#E12F2A" stop-opacity="0.68"/>
<stop offset="0.41" stop-color="#E12F2A" stop-opacity="0.47"/>
<stop offset="0.57" stop-color="#E12F2A" stop-opacity="0.31"/>
<stop offset="0.73" stop-color="#E12F2A" stop-opacity="0.19"/>
<stop offset="0.87" stop-color="#E12F2A" stop-opacity="0.12"/>
<stop offset="0.98" stop-color="#E12F2A" stop-opacity="0.1"/>
</linearGradient>
<linearGradient id="paint2_linear_40_1433" x1="680.357" y1="11.9745" x2="158.856" y2="466.271" gradientUnits="userSpaceOnUse">
<stop offset="0.33" stop-color="#37B3DF"/>
<stop offset="0.48" stop-color="#3287C4"/>
<stop offset="0.65" stop-color="#2D5BA9"/>
<stop offset="0.78" stop-color="#2A4199"/>
<stop offset="0.86" stop-color="#293793"/>
</linearGradient>
<linearGradient id="paint3_linear_40_1433" x1="807.697" y1="62.4267" x2="35.0114" y2="735.568" gradientUnits="userSpaceOnUse">
<stop stop-color="#37B3DF"/>
<stop offset="0.25" stop-color="#328EC8"/>
<stop offset="0.77" stop-color="#293793"/>
</linearGradient>
<linearGradient id="paint4_linear_40_1433" x1="689.686" y1="22.8186" x2="168.227" y2="477.115" gradientUnits="userSpaceOnUse">
<stop offset="0.31" stop-color="#37B3DF" stop-opacity="0.8"/>
<stop offset="0.46" stop-color="#328DC7" stop-opacity="0.55"/>
<stop offset="0.64" stop-color="#2E69B1" stop-opacity="0.32"/>
<stop offset="0.79" stop-color="#2B4EA0" stop-opacity="0.14"/>
<stop offset="0.91" stop-color="#293E96" stop-opacity="0.04"/>
<stop offset="0.98" stop-color="#293993" stop-opacity="0"/>
</linearGradient>
</defs>
</svg>
