<svg width="1402" height="640" viewBox="0 0 1402 640" fill="none" xmlns="http://www.w3.org/2000/svg">
<path d="M0 512.142C0 529.77 13.3492 531.766 24.9717 531.766H31.2146V444.753H89.4154V441.915H31.2367V377.942H59.352C78.6563 377.942 99.9531 381.911 109.03 394.728V375.103H0V512.164V512.142Z" fill="#283B91"/>
<path d="M189.922 372.243C85.7405 372.243 86.0283 534.604 189.922 534.604C293.816 534.604 293.816 372.243 189.922 372.243ZM189.922 531.766C131.433 531.766 131.168 375.081 189.922 375.081C248.676 375.081 248.123 531.766 189.922 531.766Z" fill="#283B91"/>
<path d="M410.771 482.273L333.266 388.142C325.606 378.474 321.621 375.059 303.468 375.059H282.171L291.823 386.723V531.744H294.657V390.426L410.771 531.744H413.604V375.059H410.771V482.251V482.273Z" fill="#283B91"/>
<path d="M433.462 403.509C439.705 390.714 448.228 377.919 470.366 377.919H482.852V512.142C482.852 529.482 496.201 531.766 507.824 531.766H514.067V377.919H526.552C548.69 377.919 557.214 391.002 563.457 403.509V375.081H433.44V403.509H433.462Z" fill="#283B91"/>
<path d="M647.227 372.243C543.045 372.243 543.333 534.604 647.227 534.604C751.12 534.604 751.12 372.243 647.227 372.243ZM647.227 531.766C588.738 531.766 588.472 375.081 647.227 375.081C705.981 375.081 705.428 531.766 647.227 531.766Z" fill="#283B91"/>
<path d="M855.302 477.439C855.302 519.238 837.702 531.744 811.026 531.744C782.911 531.744 773.281 513.273 773.281 474.024V394.684C773.281 377.055 760.219 375.059 748.575 375.059H742.044V474.024C742.044 514.692 758.802 534.582 809.321 534.582C840.558 534.582 858.158 520.657 858.158 477.417V375.059H855.324V477.417L855.302 477.439Z" fill="#283B91"/>
<path d="M968.272 468.347C995.236 462.382 1009.71 443.888 1009.71 424.841C1009.71 400.382 984.167 375.081 932.497 375.081H883.948V512.142C883.948 529.482 897.298 531.766 908.92 531.766H915.163V470.343H932.763C942.991 470.343 944.695 472.338 950.938 482.849L970.818 517.264C975.932 525.801 983.304 531.766 996.365 531.766H1014.25L986.713 482.006C981.599 472.915 976.485 468.924 968.272 468.347ZM943.278 467.504H915.163V377.942H932.763C960.302 377.942 975.622 399.562 975.622 424.863C975.622 446.771 963.977 467.526 943.256 467.526L943.278 467.504Z" fill="#283B91"/>
<path d="M977.592 244.496H977.614C977.482 244.119 977.349 243.697 977.238 243.298C977.349 243.697 977.459 244.096 977.592 244.496Z" fill="url(#paint0_radial_40_1448)"/>
<path d="M1047.59 15.0568V15.1012C1047.59 15.1012 1047.73 14.9014 1047.79 14.7904C1047.73 14.8792 1047.66 14.968 1047.59 15.0568Z" fill="url(#paint1_linear_40_1448)"/>
<path d="M1236.45 320.599C1233.11 316.873 1229.26 313.237 1224.83 309.866C1223.46 308.824 1222.04 307.804 1220.65 306.851C1222.06 307.804 1223.46 308.802 1224.83 309.866C1229.26 313.237 1233.11 316.896 1236.45 320.599Z" fill="url(#paint2_radial_40_1448)"/>
<path d="M1257.48 365.014C1257.37 363.972 1257.24 362.908 1257.08 361.821C1256.75 359.648 1256.31 357.342 1255.71 354.969C1255.11 352.574 1254.36 350.091 1253.43 347.496C1251.77 343.638 1249.54 339.07 1246.59 334.236C1245.59 332.617 1244.53 330.976 1243.38 329.336C1242.23 327.672 1240.99 326.009 1239.64 324.346C1238.64 323.105 1237.58 321.841 1236.47 320.621C1233.13 316.896 1229.28 313.259 1224.85 309.889C1223.48 308.846 1222.06 307.826 1220.67 306.873C1219.25 305.919 1217.83 305.01 1216.37 304.167C1214.45 303.037 1212.5 301.972 1210.55 300.974C1202.71 297.049 1194.66 294.344 1186.84 292.504C1182.92 291.572 1179.09 290.885 1175.37 290.331C1173.51 290.065 1171.68 289.821 1169.88 289.643C1168.09 289.466 1166.34 289.288 1164.64 289.155C1162.07 288.956 1159.61 288.845 1157.29 288.756C1151.07 288.557 1145.75 288.668 1141.86 288.756C1132.4 288.956 1117.62 290.131 1095.17 288.246C1093.79 288.135 1092.36 288.002 1090.85 287.869C1086.33 287.448 1081.18 286.894 1075.18 285.896C1073.89 285.674 1072.43 285.43 1070.86 285.142C1069.29 284.854 1067.56 284.521 1065.72 284.144C1063.89 283.767 1061.92 283.323 1059.86 282.836C1055.98 281.904 1051.73 280.751 1047.22 279.288C1045.71 278.8 1044.18 278.268 1042.61 277.713C1038.87 276.361 1034.97 274.808 1030.99 273.012C1028.33 271.815 1025.63 270.484 1022.89 269.043C1017.44 266.16 1012.39 263.056 1007.77 259.841C1005.44 258.222 1003.23 256.581 1001.1 254.918C999.155 253.388 997.273 251.836 995.48 250.284C994.351 249.308 993.266 248.354 992.203 247.379C991.296 246.536 990.388 245.693 989.525 244.873C988.219 243.631 986.979 242.389 985.783 241.148C984.566 239.906 983.392 238.664 982.286 237.467C980.802 235.848 979.43 234.274 978.124 232.743C977.482 231.967 976.84 231.213 976.242 230.482C976.308 231.125 976.397 231.834 976.485 232.588C976.508 232.81 976.552 233.054 976.574 233.298C976.64 233.852 976.729 234.429 976.817 235.027C976.862 235.338 976.906 235.648 976.972 235.959C977.061 236.558 977.172 237.178 977.282 237.799C977.349 238.132 977.393 238.442 977.459 238.797C977.614 239.573 977.769 240.394 977.946 241.236C977.991 241.436 978.035 241.635 978.079 241.857C978.301 242.899 978.544 243.986 978.832 245.072C978.898 245.383 978.987 245.716 979.076 246.026C979.275 246.846 979.496 247.667 979.74 248.51C979.85 248.931 979.983 249.352 980.116 249.773C980.227 250.173 980.36 250.594 980.492 250.993C984.322 263.477 991.429 278.512 1004.87 291.306C1023.26 308.802 1044.65 313.569 1061.05 316.94C1074.93 319.8 1086 319.978 1097.89 320.2C1125.61 320.687 1134.51 316.563 1153.46 319.756C1167.49 322.129 1180.44 330.888 1187.9 334.946C1169.6 330.067 1157.4 330.067 1148.7 329.668C1133 328.959 1122.97 330.4 1102.67 331.642C1092.69 332.263 1080.36 332.928 1064.93 330.378C1049.25 327.761 1036.77 322.861 1028.18 318.758C1056.76 346.343 1080.76 352.907 1097.76 353.55C1117.81 354.304 1133.71 347.075 1162.4 350.313C1162.4 350.313 1188.83 353.284 1202.25 367.786L1202.29 367.83C1203.2 368.806 1215.02 381.867 1212.32 397.699C1209.33 415.24 1189.05 429.897 1161.09 432.935C1202.32 437.591 1237.6 421.559 1251.48 396.458C1252.13 395.305 1252.7 394.129 1253.23 392.932C1253.37 392.644 1253.5 392.333 1253.63 392.045C1254.16 390.848 1254.65 389.628 1255.07 388.386C1255.69 386.612 1256.49 383.973 1257.06 380.559C1257.31 379.184 1257.51 377.698 1257.64 376.079C1257.77 374.461 1257.86 372.731 1257.86 370.868C1257.86 369.028 1257.75 367.054 1257.55 364.97L1257.48 365.014Z" fill="url(#paint3_linear_40_1448)"/>
<path d="M1257.08 361.821C1256.75 359.648 1256.31 357.342 1255.71 354.969C1255.11 352.574 1254.36 350.091 1253.43 347.496C1251.77 343.638 1249.54 339.07 1246.59 334.236C1245.59 332.617 1244.53 330.976 1243.38 329.336C1242.23 327.672 1240.99 326.009 1239.64 324.346C1238.64 323.105 1237.58 321.841 1236.47 320.621C1233.13 316.896 1229.28 313.259 1224.85 309.889C1223.48 308.846 1222.06 307.826 1220.67 306.873C1219.25 305.919 1217.83 305.01 1216.37 304.168C1214.45 303.037 1212.5 301.972 1210.55 300.974C1202.71 297.049 1194.66 294.344 1186.84 292.504C1182.92 291.572 1179.09 290.885 1175.37 290.331C1173.51 290.065 1171.68 289.821 1169.88 289.643C1168.09 289.466 1166.34 289.288 1164.64 289.155C1162.07 288.956 1159.61 288.845 1157.29 288.756C1151.07 288.557 1145.75 288.668 1141.86 288.756C1132.4 288.956 1117.62 290.131 1095.17 288.246C1093.79 288.135 1092.36 288.002 1090.85 287.869C1086.33 287.448 1081.18 286.894 1075.18 285.896C1073.89 285.674 1072.43 285.43 1070.86 285.142C1069.29 284.854 1067.56 284.521 1065.72 284.144C1063.89 283.767 1061.92 283.323 1059.86 282.836C1055.98 281.904 1051.73 280.751 1047.22 279.288C1045.71 278.8 1044.18 278.268 1042.61 277.713C1038.87 276.361 1034.97 274.808 1030.99 273.012C1028.33 271.815 1025.63 270.484 1022.89 269.043C1017.44 266.16 1012.39 263.056 1007.77 259.841C1005.44 258.222 1003.23 256.581 1001.1 254.918C999.155 253.388 997.273 251.836 995.48 250.284C994.351 249.308 993.266 248.354 992.203 247.379C991.296 246.536 990.388 245.693 989.525 244.873C988.219 243.631 986.979 242.389 985.783 241.148C984.566 239.906 983.392 238.664 982.286 237.467C980.802 235.848 979.43 234.274 978.124 232.743C977.482 231.967 976.84 231.213 976.242 230.482C976.308 231.125 976.397 231.834 976.485 232.588C976.508 232.81 976.552 233.054 976.574 233.298C976.64 233.852 976.729 234.429 976.817 235.027C976.862 235.338 976.906 235.648 976.972 235.959C977.061 236.558 977.172 237.178 977.282 237.799C977.349 238.132 977.393 238.442 977.459 238.797C977.614 239.573 977.769 240.394 977.946 241.236C977.991 241.436 978.035 241.635 978.079 241.857C978.301 242.899 978.544 243.986 978.832 245.072C978.898 245.383 978.987 245.716 979.076 246.026C979.275 246.846 979.496 247.667 979.74 248.51C979.85 248.931 979.983 249.352 980.116 249.773C980.227 250.173 980.36 250.594 980.492 250.993C989.835 260.728 1002.32 271.238 1018.48 279.776C1040.35 291.328 1060.43 294.876 1070.77 296.628C1078.76 297.981 1085.27 298.513 1090.74 298.979C1113.19 300.864 1128 299.688 1137.43 299.489C1153.08 299.156 1191.02 298.136 1220.47 320.599C1236.21 332.617 1244.6 347.918 1249.05 358.229C1255.51 376.212 1253.41 389.561 1251.46 396.458C1252.1 395.305 1252.68 394.129 1253.21 392.932C1253.34 392.644 1253.48 392.333 1253.61 392.045C1254.14 390.848 1254.63 389.628 1255.05 388.386C1255.67 386.612 1256.46 383.973 1257.04 380.559C1257.28 379.184 1257.48 377.698 1257.62 376.079C1257.75 374.461 1257.84 372.731 1257.84 370.868C1257.84 369.028 1257.73 367.054 1257.53 364.97C1257.42 363.928 1257.28 362.863 1257.13 361.777L1257.08 361.821Z" fill="url(#paint4_linear_40_1448)"/>
<path d="M1068.89 83.9083C1071.39 93.1994 1078.83 117.015 1097.8 139.5C1106.41 149.722 1115.73 157.661 1127.69 167.861C1131.12 170.788 1142.03 179.99 1158.33 191.588C1172.34 201.566 1177.21 204.271 1206.32 222.211C1235.7 240.305 1231.6 238.841 1248.38 248.598C1248.38 248.598 1276.88 265.14 1302.02 270.374C1304.88 270.972 1312.32 271.704 1315.02 271.682C1315.13 271.615 1315.2 271.593 1315.2 271.593C1312.58 271.615 1304.99 270.884 1302.09 270.285C1276.94 265.074 1248.45 248.51 1248.45 248.51C1231.67 238.775 1235.77 240.216 1206.39 222.122C1177.28 204.205 1172.41 201.477 1158.39 191.499C1142.1 179.902 1131.19 170.699 1127.75 167.772C1115.8 157.594 1106.5 149.633 1097.87 139.411C1078.9 116.926 1071.46 93.1107 1068.96 83.8196C1058.91 46.5443 1066.81 14.6796 1071.52 0.0222168C1068.34 2.23967 1064.44 5.32192 1060.41 9.3355C1064.42 5.34409 1068.29 2.32836 1071.46 0.110915C1066.74 14.7683 1058.84 46.633 1068.89 83.9083V83.9083Z" fill="url(#paint5_linear_40_1448)"/>
<path d="M1367.73 295.675C1364.5 289.554 1359.52 286.228 1357.61 284.987C1352.17 281.416 1346.9 280.352 1344.02 279.997C1343.78 279.509 1343.4 278.844 1342.87 278.09C1341.03 275.54 1338.91 274.188 1337.98 273.633C1336.49 272.724 1333.79 271.46 1327.73 271.061C1324.58 270.861 1323.12 271.549 1315.42 271.66H1315.15C1315.15 271.66 1315.09 271.66 1315.04 271.66C1312.34 271.66 1304.9 270.928 1302.05 270.351C1276.9 265.14 1248.41 248.576 1248.41 248.576C1231.63 238.841 1235.72 240.283 1206.34 222.188C1177.23 204.271 1172.36 201.544 1158.35 191.565C1142.06 179.968 1131.14 170.766 1127.71 167.839C1115.76 157.661 1106.46 149.7 1097.82 139.478C1078.85 116.993 1071.41 93.1772 1068.91 83.8861C1058.86 46.6108 1066.76 14.7461 1071.48 0.0887451C1068.31 2.28402 1064.44 5.32192 1060.43 9.31333C1060.23 9.5129 1060.03 9.71247 1059.84 9.91204C1059.1 10.6438 1058.4 11.4199 1057.67 12.2182C1057.31 12.6173 1056.93 13.0165 1056.58 13.4378C1056.03 14.0808 1055.47 14.7461 1054.92 15.4335C1054.46 16.01 1053.97 16.5866 1053.5 17.2074C1053.08 17.7618 1052.66 18.3383 1052.24 18.9149C1051.69 19.691 1051.11 20.4671 1050.56 21.2876C1050.49 21.3763 1050.43 21.4871 1050.36 21.598C1049.61 22.7289 1048.85 23.8598 1048.12 25.0794C1048.12 25.0794 1042.59 34.8583 1039.42 46.6108C1025.19 99.4304 1056.8 163.226 1118.97 206.378C1102.14 198.75 1072.61 182.673 1046.38 151.341C1014.47 113.245 1004.87 73.3754 1001.59 54.6158C996.454 65.0822 982.75 96.5256 993.155 132.293C1000.48 157.461 1016.33 172.983 1026.83 183.294C1045.36 201.477 1063.73 210.081 1085.4 220.015C1125.54 238.42 1155.25 243.919 1153.74 243.786C1112.21 240.261 1080.45 229.75 1060.01 221.279C1041.39 213.563 1022.82 205.668 1003.87 187.796C987.355 172.229 977.637 155.798 972.124 144.533C971.283 155 970.796 179.126 984.322 204.56C997.561 229.439 1016.89 241.813 1026.85 248.044C1049.01 261.859 1069.55 265.362 1088.86 268.444C1091.09 268.799 1095.81 269.398 1101.52 269.997C1110 270.884 1120.18 271.615 1139.91 271.948C1155.52 272.214 1152.04 271.815 1163.64 272.103C1163.64 272.103 1193.75 273.079 1209.86 278.268C1212.1 278.999 1214.16 279.798 1216.28 280.685C1217.48 281.195 1219.36 281.993 1221.75 283.168C1241.88 292.992 1254.96 309.423 1254.96 309.423C1273.25 332.285 1274.2 360.225 1274.26 367.054C1276.37 361.156 1277.96 356.544 1279 353.439C1280.17 350.024 1281.13 347.097 1282.88 343.062C1283.85 340.8 1284.82 338.737 1285.47 337.496C1287.3 333.948 1290.76 328.338 1297.33 321.974C1296.38 323.326 1295.27 325.167 1294.39 327.495C1293.21 330.511 1292.82 333.216 1292.68 335.167C1293.79 333.194 1295.47 330.444 1297.93 327.495C1305.68 318.16 1314.82 314.301 1318.63 312.527C1321.79 311.064 1329.52 307.582 1339.97 307.915C1350.68 308.248 1358.34 312.394 1360.62 313.703C1364.19 315.765 1366.84 317.982 1368.68 319.712C1369.48 317.605 1373.46 306.341 1367.75 295.586L1367.73 295.675ZM1337.45 282.703C1337.09 282.88 1333.57 284.587 1330.94 283.035C1330.05 282.503 1329.52 281.749 1329.45 281.683C1328.44 280.286 1328.5 278.733 1328.55 278.223C1328.24 278.068 1327.9 277.913 1327.53 277.78C1326.16 277.225 1324.85 277.026 1323.81 276.959C1323.92 276.937 1324.07 276.915 1324.19 276.893C1324.07 276.893 1323.96 276.871 1323.88 276.871C1324.45 276.715 1325.25 276.582 1326.2 276.605C1327.04 276.605 1327.95 276.738 1328.83 277.092H1328.86C1328.97 277.159 1329.17 277.225 1329.39 277.336C1330.8 278.002 1331.76 278.689 1332.24 279.022C1333.37 279.82 1335.19 281.039 1337.51 282.636L1337.38 282.703L1337.45 282.747V282.703Z" fill="url(#paint6_linear_40_1448)"/>
<path d="M1052.02 88.8088C1054.52 98.1 1061.96 121.915 1080.93 144.4C1089.54 154.623 1098.86 162.561 1110.82 172.761C1114.25 175.688 1125.16 184.891 1141.46 196.488C1155.47 206.467 1160.34 209.172 1189.45 227.111C1218.83 245.205 1214.73 243.742 1231.52 253.499C1231.52 253.499 1260.01 270.041 1285.16 275.274C1288.06 275.873 1295.63 276.627 1298.26 276.582H1298.53C1305.61 276.472 1313.67 272.547 1314.89 271.904C1312.19 271.904 1304.75 271.172 1301.89 270.595C1276.74 265.384 1248.25 248.82 1248.25 248.82C1231.47 239.085 1235.57 240.527 1206.19 222.432C1177.08 204.515 1172.21 201.788 1158.19 191.809C1141.9 180.212 1130.99 171.01 1127.56 168.083C1115.6 157.905 1106.3 149.944 1097.67 139.721C1078.7 117.237 1071.26 93.4211 1068.76 84.13C1058.71 46.8547 1066.61 14.99 1071.32 0.332642C1068.16 2.52792 1064.28 5.56582 1060.28 9.55723C1060.08 9.7568 1059.88 9.95637 1059.68 10.1559C1058.95 10.8877 1058.24 11.6638 1057.51 12.4621C1057.16 12.8612 1056.78 13.2604 1056.43 13.6817C1055.87 14.3247 1055.32 14.99 1054.77 15.6774C1054.3 16.2539 1053.81 16.8305 1053.35 17.4513C1052.93 18.0057 1052.51 18.5822 1052.09 19.1588C1051.53 19.9349 1050.96 20.711 1050.4 21.5315C1050.34 21.6202 1050.27 21.731 1050.21 21.8419C1046.8 38.628 1044.89 62.3769 1052.02 88.8532V88.8088Z" fill="url(#paint7_linear_40_1448)"/>
<path d="M1045.8 475.243L1045.62 475.665L1045.8 475.243Z" fill="#EE2A7B"/>
<path d="M1049.56 478.569H1049.47C1049.63 478.679 1049.56 478.569 1049.56 478.569Z" fill="#EE2A7B"/>
<path d="M1049.47 478.613C1049.63 478.701 1049.56 478.592 1049.56 478.592H1049.47V478.613Z" fill="#283B91"/>
<path d="M1111.9 392.998C1106.24 379.915 1099.97 375.369 1085.78 375.081H1070.17L1076.99 391.002L1019.92 531.766H1023.04L1044.03 479.656L1045.47 476.041L1045.6 475.687L1045.78 475.243L1078.39 394.417L1113.3 476.019L1113.41 476.219C1105.04 471.207 1095.03 468.48 1084.81 468.48C1070.28 468.48 1055.54 473.802 1044.78 485.754L1043.3 489.59C1054.68 477.017 1067.52 471.895 1079.94 471.895C1098.47 471.895 1115.53 483.847 1123.75 500.478L1123.9 500.677L1129.46 513.827C1135.13 526.91 1141.39 531.744 1155.58 531.744L1171.19 531.456L1111.86 392.976L1111.9 392.998Z" fill="#283B91"/>
<path d="M35.3765 623.613C32.9856 624.5 30.3955 624.944 27.5618 624.944C22.8021 624.944 18.6181 623.901 15.0538 621.795C11.4896 619.71 8.7445 616.894 6.81849 613.368C4.89249 609.843 3.94055 605.962 3.94055 601.727C3.94055 597.115 4.89249 592.99 6.81849 589.354C8.7445 585.717 11.4232 582.879 14.8546 580.816C18.286 578.776 22.2044 577.734 26.5877 577.734C29.2886 577.734 31.7902 578.089 34.0925 578.821C36.3949 579.552 38.4316 580.439 40.2026 581.548L37.2804 588.467C33.8711 586.05 30.3733 584.852 26.8313 584.852C24.1304 584.852 21.6067 585.584 19.2601 587.047C16.9134 588.511 15.0538 590.484 13.6591 593.012C12.2644 595.518 11.5782 598.29 11.5782 601.283C11.5782 604.454 12.2202 607.293 13.5042 609.821C14.7882 612.326 16.6256 614.3 19.0165 615.719C21.4074 617.138 24.1526 617.848 27.274 617.848C29.5099 617.848 31.5245 617.515 33.3177 616.828C35.1109 616.163 36.6163 615.276 37.8338 614.233L40.9332 620.819C39.5827 621.795 37.7232 622.726 35.3322 623.613H35.3765Z" fill="#768899"/>
<path d="M120.741 589.664C122.844 586.05 125.7 583.167 129.33 581.016C132.939 578.865 136.879 577.779 141.13 577.779C145.38 577.779 149.254 578.865 152.885 581.016C156.494 583.167 159.371 586.072 161.519 589.708C163.666 593.345 164.751 597.248 164.751 601.439C164.751 605.63 163.688 609.643 161.563 613.236C159.438 616.828 156.56 619.688 152.929 621.795C149.299 623.902 145.38 624.966 141.152 624.966C136.924 624.966 132.961 623.924 129.352 621.817C125.744 619.733 122.888 616.872 120.763 613.28C118.66 609.688 117.597 605.741 117.597 601.417C117.597 597.093 118.66 593.279 120.763 589.642L120.741 589.664ZM127.316 609.665C128.755 612.149 130.703 614.145 133.182 615.63C135.662 617.116 138.363 617.848 141.307 617.848C144.251 617.848 146.886 617.116 149.277 615.653C151.69 614.189 153.593 612.216 155.01 609.688C156.427 607.182 157.136 604.41 157.136 601.417C157.136 598.423 156.427 595.651 154.988 593.101C153.549 590.573 151.601 588.555 149.166 587.07C146.709 585.584 144.03 584.852 141.13 584.852C138.23 584.852 135.485 585.584 133.049 587.07C130.614 588.555 128.71 590.551 127.293 593.101C125.877 595.629 125.168 598.401 125.168 601.417C125.168 604.432 125.877 607.16 127.316 609.665V609.665Z" fill="#768899"/>
<path d="M284.916 578.288V626.097H284.717L251.488 593.811L251.687 624.434H244.226V576.692H244.603L277.721 609.355L277.588 578.288H284.938H284.916Z" fill="#768899"/>
<path d="M380.884 584.564C378.604 584.564 376.811 585.074 375.483 586.094C374.154 587.114 373.49 588.511 373.49 590.285C373.49 592.059 374.332 593.456 375.992 594.631C377.652 595.784 379.999 596.937 382.988 598.09C385.268 598.889 387.216 599.82 388.854 600.84C390.47 601.882 391.821 603.279 392.883 605.053C393.946 606.827 394.455 609.067 394.455 611.772C394.455 614.233 393.835 616.451 392.618 618.424C391.4 620.42 389.629 621.994 387.304 623.17C384.98 624.345 382.235 624.944 379.069 624.944C376.28 624.944 373.535 624.5 370.834 623.635C368.133 622.771 365.72 621.573 363.617 620.043L366.915 614.278C368.487 615.453 370.325 616.451 372.45 617.227C374.575 618.003 376.545 618.402 378.361 618.402C380.597 618.402 382.567 617.87 384.249 616.783C385.932 615.697 386.773 614.056 386.773 611.794C386.773 610.02 386.065 608.535 384.648 607.359C383.231 606.184 381.261 605.097 378.737 604.122C376.125 603.146 373.955 602.193 372.206 601.239C370.48 600.286 368.996 598.955 367.734 597.248C366.495 595.54 365.875 593.389 365.875 590.817C365.875 587.047 367.159 584.032 369.705 581.726C372.251 579.419 375.616 578.178 379.8 578.022C382.833 578.022 385.511 578.377 387.814 579.065C390.116 579.752 392.263 580.75 394.234 582.014L391.444 587.646C387.482 585.584 383.962 584.542 380.862 584.542L380.884 584.564Z" fill="#768899"/>
<path d="M481.812 612.77C482.741 614.3 484.003 615.497 485.619 616.406C487.213 617.316 488.984 617.781 490.866 617.781C492.748 617.781 494.652 617.338 496.268 616.451C497.884 615.564 499.168 614.366 500.098 612.836C501.027 611.306 501.492 609.643 501.492 607.825V578.266H508.776V608.002C508.776 611.306 507.979 614.233 506.407 616.783C504.835 619.333 502.666 621.329 499.92 622.771C497.175 624.212 494.165 624.921 490.866 624.921C487.567 624.921 484.557 624.212 481.834 622.771C479.111 621.329 476.963 619.333 475.414 616.783C473.842 614.233 473.067 611.306 473.067 608.002V578.266H480.417V607.825C480.417 609.599 480.882 611.24 481.812 612.77V612.77Z" fill="#768899"/>
<path d="M597.726 578.289V617.36H620.462V624.456H590.332V578.289H597.748H597.726Z" fill="#768899"/>
<path d="M722.319 578.289V585.384H710.409V624.456H703.059V585.384H691.481V578.289H722.319Z" fill="#768899"/>
<path d="M821.342 613.59H804.562L800.134 624.434H792.851L813.24 576.359H813.682L834.072 624.434H825.593L821.342 613.59V613.59ZM818.863 607.248L813.107 592.658L807.152 607.248H818.863Z" fill="#768899"/>
<path d="M952.266 578.288V626.097H952.067L918.838 593.811L919.037 624.434H911.555V576.692H911.931L945.049 609.355L944.917 578.288H952.266V578.288Z" fill="#768899"/>
<path d="M1062.18 578.289V585.384H1050.27V624.456H1042.92V585.384H1031.34V578.289H1062.18Z" fill="#768899"/>
<path d="M1154.81 584.564C1152.53 584.564 1150.73 585.074 1149.38 586.094C1148.05 587.114 1147.39 588.511 1147.39 590.285C1147.39 592.059 1148.23 593.456 1149.89 594.631C1151.55 595.806 1153.9 596.937 1156.89 598.09C1159.17 598.889 1161.12 599.82 1162.75 600.84C1164.37 601.882 1165.72 603.279 1166.78 605.053C1167.85 606.827 1168.38 609.067 1168.38 611.772C1168.38 614.233 1167.76 616.451 1166.54 618.424C1165.32 620.42 1163.55 621.994 1161.23 623.17C1158.9 624.345 1156.16 624.944 1152.99 624.944C1150.2 624.944 1147.46 624.5 1144.76 623.635C1142.06 622.771 1139.64 621.573 1137.54 620.043L1140.84 614.278C1142.41 615.453 1144.25 616.451 1146.37 617.227C1148.5 618.003 1150.47 618.402 1152.28 618.402C1154.52 618.402 1156.49 617.87 1158.17 616.783C1159.85 615.697 1160.7 614.056 1160.7 611.794C1160.7 610.02 1159.99 608.535 1158.57 607.359C1157.15 606.184 1155.18 605.097 1152.66 604.122C1150.05 603.146 1147.88 602.193 1146.13 601.239C1144.4 600.286 1142.92 598.955 1141.66 597.248C1140.42 595.54 1139.8 593.389 1139.8 590.817C1139.8 587.047 1141.08 584.032 1143.63 581.726C1146.17 579.419 1149.54 578.178 1153.72 578.022C1156.76 578.022 1159.43 578.377 1161.74 579.065C1164.04 579.752 1166.19 580.75 1168.16 582.014L1165.37 587.646C1161.4 585.584 1157.88 584.542 1154.78 584.542L1154.81 584.564Z" fill="#768899"/>
<defs>
<radialGradient id="paint0_radial_40_1448" cx="0" cy="0" r="1" gradientUnits="userSpaceOnUse" gradientTransform="translate(1114.22 306.983) scale(115.525 115.707)">
<stop stop-color="#E12F2A"/>
</radialGradient>
<linearGradient id="paint1_linear_40_1448" x1="1017.59" y1="-11.2901" x2="1294.06" y2="229.701" gradientUnits="userSpaceOnUse">
<stop offset="0.33" stop-color="#37B3DF"/>
<stop offset="0.48" stop-color="#3287C4"/>
<stop offset="0.65" stop-color="#2D5BA9"/>
<stop offset="0.78" stop-color="#2A4199"/>
<stop offset="0.86" stop-color="#293793"/>
</linearGradient>
<radialGradient id="paint2_radial_40_1448" cx="0" cy="0" r="1" gradientUnits="userSpaceOnUse" gradientTransform="translate(1116.97 313.481) scale(115.516 115.706)">
<stop stop-color="#E12F2A"/>
</radialGradient>
<linearGradient id="paint3_linear_40_1448" x1="1382.23" y1="478.282" x2="1051.98" y2="291.662" gradientUnits="userSpaceOnUse">
<stop stop-color="#E86EA5"/>
<stop offset="0.07" stop-color="#E8669A"/>
<stop offset="0.2" stop-color="#EA537E"/>
<stop offset="0.37" stop-color="#EC3451"/>
<stop offset="0.47" stop-color="#EE1F32"/>
<stop offset="0.62" stop-color="#DB1E2D"/>
<stop offset="0.9" stop-color="#AC1C22"/>
<stop offset="1" stop-color="#9B1C1F"/>
</linearGradient>
<linearGradient id="paint4_linear_40_1448" x1="964.929" y1="278.445" x2="1264.57" y2="348.74" gradientUnits="userSpaceOnUse">
<stop stop-color="#E12F2A"/>
<stop offset="0.05" stop-color="#E12F2A" stop-opacity="0.93"/>
<stop offset="0.23" stop-color="#E12F2A" stop-opacity="0.68"/>
<stop offset="0.41" stop-color="#E12F2A" stop-opacity="0.47"/>
<stop offset="0.57" stop-color="#E12F2A" stop-opacity="0.31"/>
<stop offset="0.73" stop-color="#E12F2A" stop-opacity="0.19"/>
<stop offset="0.87" stop-color="#E12F2A" stop-opacity="0.12"/>
<stop offset="0.98" stop-color="#E12F2A" stop-opacity="0.1"/>
</linearGradient>
<linearGradient id="paint5_linear_40_1448" x1="1010.73" y1="6.36412" x2="1286.88" y2="246.751" gradientUnits="userSpaceOnUse">
<stop offset="0.33" stop-color="#37B3DF"/>
<stop offset="0.48" stop-color="#3287C4"/>
<stop offset="0.65" stop-color="#2D5BA9"/>
<stop offset="0.78" stop-color="#2A4199"/>
<stop offset="0.86" stop-color="#293793"/>
</linearGradient>
<linearGradient id="paint6_linear_40_1448" x1="943.345" y1="33.0844" x2="1352.5" y2="389.271" gradientUnits="userSpaceOnUse">
<stop stop-color="#37B3DF"/>
<stop offset="0.25" stop-color="#328EC8"/>
<stop offset="0.77" stop-color="#293793"/>
</linearGradient>
<linearGradient id="paint7_linear_40_1448" x1="1005.77" y1="12.1073" x2="1281.94" y2="252.494" gradientUnits="userSpaceOnUse">
<stop offset="0.31" stop-color="#37B3DF" stop-opacity="0.8"/>
<stop offset="0.46" stop-color="#328DC7" stop-opacity="0.55"/>
<stop offset="0.64" stop-color="#2E69B1" stop-opacity="0.32"/>
<stop offset="0.79" stop-color="#2B4EA0" stop-opacity="0.14"/>
<stop offset="0.91" stop-color="#293E96" stop-opacity="0.04"/>
<stop offset="0.98" stop-color="#293993" stop-opacity="0"/>
</linearGradient>
</defs>
</svg>
