<svg width="754" height="819" viewBox="0 0 754 819" fill="none" xmlns="http://www.w3.org/2000/svg">
<g opacity="0.1">
<path d="M539.906 689.164C539.697 687.196 539.446 685.187 539.153 683.135C538.526 679.032 537.689 674.677 536.559 670.197C535.43 665.676 534.008 660.986 532.251 656.088C529.113 648.802 524.888 640.177 519.324 631.05C517.442 627.993 515.434 624.895 513.258 621.797C511.083 618.657 508.74 615.517 506.189 612.376C504.306 610.032 502.298 607.645 500.206 605.342C493.89 598.308 486.611 591.442 478.244 585.078C475.65 583.11 472.973 581.184 470.338 579.384C467.66 577.583 464.983 575.867 462.222 574.276C458.583 572.14 454.901 570.13 451.22 568.246C436.411 560.836 421.184 555.728 406.417 552.252C399.012 550.494 391.775 549.196 384.747 548.149C381.233 547.647 377.761 547.186 374.372 546.851C370.984 546.516 367.679 546.181 364.458 545.93C359.605 545.553 354.962 545.344 350.569 545.177C338.814 544.8 328.774 545.009 321.412 545.177C303.549 545.553 275.604 547.772 233.186 544.214C230.592 544.004 227.873 543.753 225.028 543.502C216.494 542.706 206.747 541.66 195.41 539.775C192.984 539.357 190.223 538.896 187.253 538.352C184.283 537.808 181.02 537.18 177.548 536.468C174.076 535.756 170.352 534.919 166.462 533.998C159.141 532.239 151.109 530.062 142.575 527.298C139.731 526.377 136.844 525.373 133.874 524.326C126.804 521.772 119.441 518.841 111.912 515.45C106.892 513.189 101.788 510.676 96.6006 507.955C86.3097 502.512 76.7717 496.65 68.0286 490.579C63.6361 487.523 59.4528 484.425 55.4368 481.284C51.7555 478.395 48.1997 475.465 44.8112 472.534C42.6777 470.692 40.6279 468.891 38.6199 467.049C36.9048 465.458 35.1896 463.867 33.5581 462.318C31.09 459.973 28.7473 457.628 26.4883 455.284C24.1875 452.939 21.9703 450.594 19.8787 448.333C17.0759 445.277 14.4822 442.304 12.0141 439.415C10.8009 437.95 9.58775 436.526 8.45825 435.145C8.58375 436.359 8.75108 437.699 8.91842 439.122C8.96025 439.541 9.04392 440.002 9.08575 440.462C9.21125 441.509 9.37858 442.597 9.54591 443.728C9.62958 444.314 9.71324 444.9 9.83874 445.486C10.0061 446.617 10.2152 447.789 10.4244 448.962C10.5499 449.59 10.6336 450.176 10.7591 450.846C11.0519 452.311 11.3447 453.86 11.6794 455.451C11.7631 455.828 11.8467 456.205 11.9304 456.624C12.3487 458.591 12.8089 460.643 13.3527 462.695C13.4782 463.281 13.6456 463.909 13.8129 464.495C14.1894 466.044 14.6077 467.593 15.0679 469.184C15.277 469.98 15.528 470.775 15.779 471.571C15.9882 472.324 16.2392 473.12 16.4902 473.874C23.7273 497.446 37.1558 525.833 62.5485 549.991C97.3118 583.026 137.723 592.028 168.721 598.392C194.95 603.793 215.867 604.128 238.331 604.547C290.706 605.468 307.523 597.68 343.332 603.709C369.854 608.189 394.327 624.728 408.425 632.39C373.829 623.179 350.779 623.179 334.338 622.425C304.678 621.085 285.728 623.807 247.367 626.151C228.5 627.324 205.199 628.58 176.042 623.765C146.424 618.824 122.83 609.571 106.599 601.825C160.605 653.91 205.952 666.304 238.08 667.518C275.981 668.941 306.017 655.292 360.233 661.405C360.233 661.405 410.182 667.015 435.533 694.398L435.616 694.482C437.331 696.324 459.67 720.985 454.567 750.879C448.919 783.997 410.6 811.673 357.765 817.409C435.658 826.201 502.34 795.93 528.569 748.534C529.782 746.357 530.87 744.138 531.874 741.877C532.125 741.333 532.376 740.747 532.627 740.202C533.631 737.942 534.551 735.639 535.346 733.294C536.518 729.945 538.024 724.962 539.111 718.514C539.571 715.918 539.948 713.113 540.199 710.057C540.45 707 540.617 703.735 540.617 700.218C540.617 696.742 540.408 693.016 540.032 689.08L539.906 689.164Z" fill="url(#paint0_linear_40_1489)"/>
<path d="M539.153 683.135C538.526 679.032 537.689 674.677 536.559 670.197C535.43 665.676 534.008 660.986 532.251 656.088C529.113 648.802 524.888 640.177 519.324 631.05C517.442 627.993 515.434 624.895 513.258 621.797C511.083 618.657 508.74 615.517 506.189 612.376C504.306 610.032 502.298 607.645 500.206 605.342C493.89 598.308 486.611 591.442 478.244 585.078C475.65 583.11 472.973 581.184 470.338 579.384C467.66 577.583 464.983 575.867 462.222 574.276C458.583 572.14 454.901 570.13 451.22 568.246C436.411 560.836 421.184 555.728 406.417 552.252C399.012 550.494 391.775 549.196 384.747 548.149C381.233 547.647 377.761 547.186 374.372 546.851C370.984 546.516 367.679 546.181 364.458 545.93C359.605 545.553 354.962 545.344 350.569 545.177C338.814 544.8 328.774 545.009 321.412 545.177C303.549 545.553 275.604 547.772 233.186 544.214C230.592 544.004 227.873 543.753 225.028 543.502C216.494 542.706 206.747 541.66 195.41 539.775C192.984 539.357 190.223 538.896 187.253 538.352C184.283 537.808 181.02 537.18 177.548 536.468C174.076 535.756 170.352 534.919 166.462 533.998C159.141 532.239 151.109 530.062 142.575 527.298C139.731 526.377 136.844 525.373 133.874 524.326C126.804 521.772 119.441 518.841 111.912 515.45C106.892 513.189 101.788 510.676 96.6006 507.955C86.3097 502.512 76.7717 496.65 68.0286 490.579C63.6361 487.523 59.4528 484.425 55.4368 481.284C51.7555 478.395 48.1997 475.465 44.8112 472.534C42.6777 470.692 40.6279 468.891 38.6199 467.049C36.9048 465.458 35.1896 463.867 33.5581 462.318C31.09 459.973 28.7473 457.628 26.4883 455.284C24.1875 452.939 21.9703 450.594 19.8787 448.333C17.0759 445.277 14.4822 442.304 12.0141 439.415C10.8009 437.95 9.58775 436.526 8.45825 435.145C8.58375 436.359 8.75108 437.699 8.91842 439.122C8.96025 439.541 9.04392 440.002 9.08575 440.462C9.21125 441.509 9.37858 442.597 9.54591 443.728C9.62958 444.314 9.71324 444.9 9.83874 445.486C10.0061 446.617 10.2152 447.789 10.4244 448.962C10.5499 449.59 10.6336 450.176 10.7591 450.846C11.0519 452.311 11.3447 453.86 11.6794 455.451C11.7631 455.828 11.8467 456.205 11.9304 456.624C12.3487 458.591 12.8089 460.643 13.3527 462.695C13.4782 463.281 13.6456 463.909 13.8129 464.495C14.1894 466.044 14.6077 467.593 15.0679 469.184C15.277 469.98 15.528 470.775 15.779 471.571C15.9882 472.324 16.2392 473.12 16.4902 473.874C34.1438 492.254 57.7377 512.1 88.2758 528.22C129.607 550.033 167.55 556.732 187.086 560.04C202.187 562.594 214.486 563.599 224.819 564.478C267.238 568.037 295.224 565.818 313.045 565.441C342.621 564.813 414.323 562.887 469.961 605.3C499.704 627.993 515.559 656.883 523.968 676.352C536.183 710.308 532.209 735.513 528.527 748.534C529.741 746.357 530.828 744.138 531.832 741.877C532.083 741.333 532.334 740.747 532.585 740.202C533.589 737.942 534.51 735.639 535.304 733.294C536.476 729.945 537.982 724.962 539.069 718.514C539.53 715.918 539.906 713.113 540.157 710.057C540.408 707 540.575 703.735 540.575 700.218C540.575 696.742 540.366 693.016 539.99 689.08C539.781 687.113 539.53 685.103 539.237 683.051L539.153 683.135Z" fill="url(#paint1_linear_40_1489)"/>
<path d="M183.572 158.391C188.299 175.934 202.355 220.901 238.206 263.356C254.479 282.658 272.091 297.647 294.681 316.907C301.165 322.433 321.788 339.809 352.578 361.707C379.058 380.548 388.261 385.656 443.272 419.528C498.784 453.693 491.045 450.929 522.755 469.352C522.755 469.352 576.594 500.586 624.116 510.467C629.513 511.598 643.569 512.979 648.672 512.937C648.882 512.812 649.007 512.77 649.007 512.77C644.071 512.812 629.722 511.43 624.242 510.3C576.719 500.46 522.88 469.184 522.88 469.184C491.171 450.804 498.91 453.525 443.397 419.36C388.387 385.53 379.184 380.38 352.703 361.539C321.914 339.642 301.29 322.266 294.806 316.739C272.216 297.521 254.646 282.49 238.331 263.189C202.48 220.734 188.425 175.766 183.697 158.223C164.705 87.8412 179.64 27.6754 188.55 0C182.526 4.1869 175.163 10.0067 167.55 17.585C175.122 10.0486 182.442 4.35438 188.425 0.167476C179.514 27.8429 164.58 88.0087 183.572 158.391Z" fill="url(#paint2_linear_40_1489)"/>
<path d="M748.277 558.24C742.169 546.684 732.757 540.404 729.159 538.059C718.868 531.318 708.912 529.308 703.474 528.638C703.013 527.717 702.302 526.461 701.298 525.038C697.826 520.223 693.81 517.669 692.053 516.622C689.25 514.905 684.147 512.519 672.684 511.765C666.744 511.388 663.983 512.686 649.425 512.896H648.923C648.923 512.896 648.798 512.896 648.714 512.896C643.61 512.896 629.555 511.514 624.158 510.425C576.636 500.586 522.796 469.31 522.796 469.31C491.087 450.929 498.826 453.651 443.314 419.486C388.303 385.656 379.1 380.506 352.619 361.665C321.83 339.767 301.206 322.392 294.722 316.865C272.132 297.647 254.563 282.616 238.248 263.314C202.397 220.859 188.341 175.892 183.614 158.349C164.621 87.9668 179.556 27.801 188.466 0.12561C182.484 4.27064 175.163 10.0067 167.592 17.5431C167.215 17.9199 166.839 18.2968 166.462 18.6736C165.082 20.0553 163.743 21.5207 162.362 23.028C161.693 23.7816 160.982 24.5353 160.313 25.3308C159.267 26.545 158.221 27.801 157.175 29.099C156.297 30.1876 155.376 31.2762 154.498 32.4485C153.703 33.4952 152.908 34.5838 152.113 35.6724C151.067 37.1378 149.98 38.6032 148.934 40.1524C148.808 40.3199 148.683 40.5292 148.557 40.7386C147.135 42.8739 145.713 45.0092 144.332 47.312C144.332 47.312 133.874 65.7762 127.892 87.9668C100.993 187.699 160.731 308.156 278.198 389.633C246.405 375.23 190.6 344.875 141.027 285.714C80.6623 213.783 62.5486 138.545 56.3573 103.123C46.652 122.886 20.7573 182.256 40.4189 249.791C54.2656 297.312 84.2181 326.62 104.047 346.089C139.061 380.422 173.783 396.667 214.737 415.424C290.581 450.176 346.721 460.559 343.876 460.308C265.397 453.651 205.367 433.805 166.755 417.811C131.573 403.241 96.4752 388.335 60.6661 354.589C29.4586 325.197 11.0938 294.172 0.6774 272.902C-0.912258 292.664 -1.83259 338.218 23.7274 386.242C48.7436 433.219 85.2639 456.582 104.089 468.347C145.964 494.431 184.785 501.047 221.263 506.866C225.489 507.536 234.399 508.667 245.192 509.797C261.214 511.472 280.457 512.854 317.731 513.482C347.223 513.984 340.655 513.231 362.576 513.775C362.576 513.775 419.469 515.617 449.923 525.414C454.148 526.796 458.039 528.303 462.055 529.978C464.314 530.941 467.87 532.448 472.388 534.667C510.414 553.215 535.137 584.24 535.137 584.24C569.691 627.407 571.49 680.162 571.616 693.058C575.59 681.921 578.602 673.212 580.568 667.35C582.785 660.903 584.584 655.376 587.889 647.756C589.729 643.485 591.57 639.591 592.783 637.247C596.255 630.548 602.781 619.955 615.206 607.938C613.407 610.492 611.315 613.967 609.642 618.364C607.425 624.058 606.672 629.166 606.421 632.85C608.513 629.124 611.692 623.932 616.335 618.364C630.977 600.737 648.254 593.452 655.449 590.102C661.431 587.339 676.031 580.765 695.776 581.393C716.024 582.021 730.498 589.851 734.807 592.321C741.542 596.215 746.562 600.402 750.034 603.668C751.54 599.69 759.07 578.421 748.277 558.114V558.24ZM691.049 533.746C690.38 534.081 683.728 537.305 678.75 534.374C677.077 533.37 676.073 531.946 675.947 531.82C674.023 529.183 674.149 526.252 674.232 525.289C673.647 524.996 673.019 524.703 672.308 524.451C669.714 523.405 667.246 523.028 665.28 522.902C665.489 522.86 665.782 522.819 665.991 522.777C665.782 522.777 665.573 522.735 665.406 522.735C666.493 522.442 667.999 522.19 669.798 522.232C671.388 522.232 673.103 522.484 674.776 523.153H674.818C675.027 523.279 675.404 523.405 675.822 523.614C678.499 524.87 680.298 526.168 681.218 526.796C683.352 528.303 686.782 530.606 691.175 533.621L690.924 533.746L691.049 533.83V533.746Z" fill="url(#paint3_linear_40_1489)"/>
<path d="M151.695 167.644C156.422 185.187 170.478 230.154 206.329 272.609C222.602 291.911 240.214 306.9 262.803 326.16C269.288 331.686 289.911 349.062 320.7 370.96C347.181 389.801 356.384 394.909 411.395 428.781C466.907 462.946 459.168 460.182 490.878 478.605C490.878 478.605 544.717 509.839 592.239 519.72C597.719 520.851 612.026 522.274 617.004 522.19H617.506C630.893 521.981 646.12 514.57 648.421 513.356C643.317 513.356 629.262 511.974 623.865 510.886C576.343 501.047 522.503 469.77 522.503 469.77C490.794 451.39 498.533 454.111 443.021 419.946C388.01 386.116 378.807 380.966 352.326 362.125C321.537 340.228 300.913 322.852 294.429 317.325C271.839 298.107 254.269 283.076 237.955 263.775C202.104 221.32 188.048 176.352 183.321 158.809C164.328 88.4274 179.263 28.2616 188.173 0.586182C182.191 4.73122 174.87 10.4673 167.298 18.0037C166.922 18.3805 166.545 18.7573 166.169 19.1342C164.788 20.5158 163.45 21.9813 162.069 23.4885C161.4 24.2422 160.689 24.9958 160.019 25.7913C158.974 27.0055 157.928 28.2616 156.882 29.5595C156.004 30.6481 155.083 31.7367 154.205 32.9091C153.41 33.9558 152.615 35.0444 151.82 36.133C150.774 37.5984 149.687 39.0638 148.641 40.613C148.515 40.7804 148.39 40.9898 148.264 41.1991C141.822 72.894 138.224 117.736 151.695 167.727V167.644Z" fill="url(#paint4_linear_40_1489)"/>
</g>
<defs>
<linearGradient id="paint0_linear_40_1489" x1="775.636" y1="903.031" x2="151.812" y2="550.241" gradientUnits="userSpaceOnUse">
<stop stop-color="#E86EA5"/>
<stop offset="0.07" stop-color="#E8669A"/>
<stop offset="0.2" stop-color="#EA537E"/>
<stop offset="0.37" stop-color="#EC3451"/>
<stop offset="0.47" stop-color="#EE1F32"/>
<stop offset="0.62" stop-color="#DB1E2D"/>
<stop offset="0.9" stop-color="#AC1C22"/>
<stop offset="1" stop-color="#9B1C1F"/>
</linearGradient>
<linearGradient id="paint1_linear_40_1489" x1="-12.9185" y1="525.707" x2="553.26" y2="658.635" gradientUnits="userSpaceOnUse">
<stop stop-color="#E12F2A"/>
<stop offset="0.05" stop-color="#E12F2A" stop-opacity="0.93"/>
<stop offset="0.23" stop-color="#E12F2A" stop-opacity="0.68"/>
<stop offset="0.41" stop-color="#E12F2A" stop-opacity="0.47"/>
<stop offset="0.57" stop-color="#E12F2A" stop-opacity="0.31"/>
<stop offset="0.73" stop-color="#E12F2A" stop-opacity="0.19"/>
<stop offset="0.87" stop-color="#E12F2A" stop-opacity="0.12"/>
<stop offset="0.98" stop-color="#E12F2A" stop-opacity="0.1"/>
</linearGradient>
<linearGradient id="paint2_linear_40_1489" x1="73.6345" y1="11.9745" x2="595.136" y2="466.271" gradientUnits="userSpaceOnUse">
<stop offset="0.33" stop-color="#37B3DF"/>
<stop offset="0.48" stop-color="#3287C4"/>
<stop offset="0.65" stop-color="#2D5BA9"/>
<stop offset="0.78" stop-color="#2A4199"/>
<stop offset="0.86" stop-color="#293793"/>
</linearGradient>
<linearGradient id="paint3_linear_40_1489" x1="-53.7056" y1="62.4267" x2="718.98" y2="735.568" gradientUnits="userSpaceOnUse">
<stop stop-color="#37B3DF"/>
<stop offset="0.25" stop-color="#328EC8"/>
<stop offset="0.77" stop-color="#293793"/>
</linearGradient>
<linearGradient id="paint4_linear_40_1489" x1="64.3053" y1="22.8186" x2="585.765" y2="477.115" gradientUnits="userSpaceOnUse">
<stop offset="0.31" stop-color="#37B3DF" stop-opacity="0.8"/>
<stop offset="0.46" stop-color="#328DC7" stop-opacity="0.55"/>
<stop offset="0.64" stop-color="#2E69B1" stop-opacity="0.32"/>
<stop offset="0.79" stop-color="#2B4EA0" stop-opacity="0.14"/>
<stop offset="0.91" stop-color="#293E96" stop-opacity="0.04"/>
<stop offset="0.98" stop-color="#293993" stop-opacity="0"/>
</linearGradient>
</defs>
</svg>
